<svg width="22" height="22" viewBox="0 0 22 22" fill="none" xmlns="http://www.w3.org/2000/svg">
<path d="M20.5284 4.80894L17.1584 1.43894C17.0088 1.28897 16.8311 1.16998 16.6355 1.0888C16.4399 1.00761 16.2302 0.96582 16.0184 0.96582C15.8066 0.96582 15.5969 1.00761 15.4012 1.0888C15.2056 1.16998 15.0279 1.28897 14.8784 1.43894L1.77166 14.6221C1.37733 15.0188 1.10173 15.5177 0.975966 16.0627L0.0583709 20.0389C0.0110824 20.2721 0.0160535 20.5128 0.0729278 20.7438C0.129802 20.9749 0.237165 21.1904 0.387295 21.3749C0.537425 21.5595 0.726591 21.7085 0.941184 21.8112C1.15578 21.9139 1.39047 21.9678 1.62837 21.9689C1.75133 21.9825 1.87541 21.9825 1.99837 21.9689L5.98533 21.0893C6.54872 20.965 7.06432 20.6809 7.47035 20.2711L20.5284 7.08894C20.6783 6.93938 20.7973 6.7617 20.8785 6.56608C20.9597 6.37046 21.0015 6.16074 21.0015 5.94894C21.0015 5.73714 20.9597 5.52742 20.8785 5.3318C20.7973 5.13618 20.6783 4.9585 20.5284 4.80894ZM5.80837 19.0489L2.14837 19.8589L2.99837 16.2289L13.3184 5.83894L16.1384 8.65894L5.80837 19.0489ZM17.2684 7.52894L14.4484 4.70894L15.9984 3.12894L18.8384 5.96894L17.2684 7.52894Z" fill="white"/>
</svg>
